<svg version="1.1" xmlns="http://www.w3.org/2000/svg" xmlns:xlink="http://www.w3.org/1999/xlink" width="86.38897" height="86.98038" viewBox="0,0,86.38897,86.98038"><g transform="translate(-196.80555,-136.80555)"><g stroke-miterlimit="10"><path d="M196.80556,218.1136c0,-16.43868 0,-67.62958 0,-76.51399c0,-2.57249 1.95239,-4.79405 4.27093,-4.79405c8.51409,0 60.3612,0 76.99002,0c3.22727,0 5.12802,2.08744 5.12802,4.53447c0,8.59873 0,58.9647 0,76.12828c0,3.58898 -3.03125,5.7262 -6.32088,5.7262c-8.22611,0 -57.91095,0 -74.60324,0c-3.42824,0 -5.46484,-1.88278 -5.46484,-5.08092z" fill="#ffffff" stroke="none" stroke-width="NaN" stroke-linecap="butt"/><path d="M203.79968,180.00004c0,-19.99291 16.20746,-36.20035 36.20035,-36.20035c19.99291,0 36.20035,16.20746 36.20035,36.20035c0,19.99291 -16.20746,36.20035 -36.20035,36.20035c-19.99291,0 -36.20035,-16.20746 -36.20035,-36.20035z" fill="none" stroke="#2fd7ff" stroke-width="4" stroke-linecap="butt"/><path d="M217.75267,180.67464l44.4947,0.45871" fill="none" stroke="#2fd7ff" stroke-width="4" stroke-linecap="round"/><path d="M239.73084,202.24854l-0.04123,-44.49704" fill="#000000" stroke="#2fd7ff" stroke-width="4" stroke-linecap="round"/><path d="M223.5526,195.29474l32.31526,-30.58941" fill="none" stroke="#2fd7ff" stroke-width="3" stroke-linecap="round"/><path d="M223.02056,165.2877l33.37931,29.42464" fill="none" stroke="#2fd7ff" stroke-width="3" stroke-linecap="round"/><path d="M246.20389,160.77003l-6.3305,8.49619l-6.99686,-8.66279" fill="none" stroke="#2fd7ff" stroke-width="3" stroke-linecap="round"/><path d="M233.20972,198.75303l6.99687,-8.66279l6.3305,8.4962" fill="none" stroke="#2fd7ff" stroke-width="3" stroke-linecap="round"/><path d="M261.60102,187.54669l-8.56306,-6.23976l8.58787,-7.08863" fill="none" stroke="#2fd7ff" stroke-width="3" stroke-linecap="round"/><path d="M220.21932,173.55192l8.58787,7.08863l-8.56306,6.23976" fill="none" stroke="#2fd7ff" stroke-width="3" stroke-linecap="round"/><path d="M229.84504,165.07852l1.21015,7.20061l-7.16696,-1.6168" fill="none" stroke="#2fd7ff" stroke-width="2" stroke-linecap="round"/><path d="M256.04401,170.16257l-7.16696,1.6168l1.21015,-7.20061" fill="none" stroke="#2fd7ff" stroke-width="2" stroke-linecap="round"/><path d="M224.05482,189.85164l7.16696,-1.6168l-1.21015,7.20061" fill="none" stroke="#2fd7ff" stroke-width="2" stroke-linecap="round"/><path d="M250.75356,195.76863l-1.21015,-7.20061l7.16697,1.6168" fill="none" stroke="#2fd7ff" stroke-width="2" stroke-linecap="round"/><text transform="translate(198.33297,219.273) scale(0.42375,0.42375)" font-size="40" xml:space="preserve" fill="#2ed5ff" stroke="#000000" stroke-width="0.5" stroke-linecap="butt" font-family="&quot;AaLuoBiJingHongZhiZhenKai-2&quot;, Serif" font-weight="normal" text-anchor="start"><tspan x="0" dy="0">慕雪安装器</tspan></text></g></g></svg>